<svg width="66" height="55" viewBox="0 0 66 55" fill="none" xmlns="http://www.w3.org/2000/svg">
<path d="M7.29062 3.84754C7.29062 5.88929 5.65856 7.54445 3.64531 7.54445C1.63206 7.54445 0 5.88929 0 3.84754C0 1.8058 1.63206 0.150635 3.64531 0.150635C5.65856 0.150635 7.29062 1.8058 7.29062 3.84754Z" fill="#FFCE07"/>
<path d="M7.29062 35.0658C7.29062 37.1075 5.65856 38.7627 3.64531 38.7627C1.63206 38.7627 0 37.1075 0 35.0658C0 33.0241 1.63206 31.3689 3.64531 31.3689C5.65856 31.3689 7.29062 33.0241 7.29062 35.0658Z" fill="#FFCE07"/>
<path d="M7.29062 19.4568C7.29062 21.4985 5.65856 23.1537 3.64531 23.1537C1.63206 23.1537 0 21.4985 0 19.4568C0 17.415 1.63206 15.7599 3.64531 15.7599C5.65856 15.7599 7.29062 17.415 7.29062 19.4568Z" fill="#FFCE07"/>
<path d="M7.29062 50.6749C7.29062 52.7167 5.65856 54.3718 3.64531 54.3718C1.63206 54.3718 0 52.7167 0 50.6749C0 48.6332 1.63206 46.978 3.64531 46.978C5.65856 46.978 7.29062 48.6332 7.29062 50.6749Z" fill="#FFCE07"/>
<path d="M46.1739 3.84754C46.1739 5.88929 44.5419 7.54445 42.5286 7.54445C40.5154 7.54445 38.8833 5.88929 38.8833 3.84754C38.8833 1.8058 40.5154 0.150635 42.5286 0.150635C44.5419 0.150635 46.1739 1.8058 46.1739 3.84754Z" fill="#FFCE07"/>
<path d="M46.1739 35.0658C46.1739 37.1075 44.5419 38.7627 42.5286 38.7627C40.5154 38.7627 38.8833 37.1075 38.8833 35.0658C38.8833 33.0241 40.5154 31.3689 42.5286 31.3689C44.5419 31.3689 46.1739 33.0241 46.1739 35.0658Z" fill="#FFCE07"/>
<path d="M46.1739 19.4568C46.1739 21.4985 44.5419 23.1537 42.5286 23.1537C40.5154 23.1537 38.8833 21.4985 38.8833 19.4568C38.8833 17.415 40.5154 15.7599 42.5286 15.7599C44.5419 15.7599 46.1739 17.415 46.1739 19.4568Z" fill="#FFCE07"/>
<path d="M46.1739 50.6749C46.1739 52.7167 44.5419 54.3718 42.5286 54.3718C40.5154 54.3718 38.8833 52.7167 38.8833 50.6749C38.8833 48.6332 40.5154 46.978 42.5286 46.978C44.5419 46.978 46.1739 48.6332 46.1739 50.6749Z" fill="#FFCE07"/>
<path d="M26.7323 3.84754C26.7323 5.88929 25.1002 7.54445 23.087 7.54445C21.0737 7.54445 19.4417 5.88929 19.4417 3.84754C19.4417 1.8058 21.0737 0.150635 23.087 0.150635C25.1002 0.150635 26.7323 1.8058 26.7323 3.84754Z" fill="#FFCE07"/>
<path d="M26.7323 35.0658C26.7323 37.1075 25.1002 38.7627 23.087 38.7627C21.0737 38.7627 19.4417 37.1075 19.4417 35.0658C19.4417 33.0241 21.0737 31.3689 23.087 31.3689C25.1002 31.3689 26.7323 33.0241 26.7323 35.0658Z" fill="#FFCE07"/>
<path d="M26.7323 19.4568C26.7323 21.4985 25.1002 23.1537 23.087 23.1537C21.0737 23.1537 19.4417 21.4985 19.4417 19.4568C19.4417 17.415 21.0737 15.7599 23.087 15.7599C25.1002 15.7599 26.7323 17.415 26.7323 19.4568Z" fill="#FFCE07"/>
<path d="M26.7323 50.6749C26.7323 52.7167 25.1002 54.3718 23.087 54.3718C21.0737 54.3718 19.4417 52.7167 19.4417 50.6749C19.4417 48.6332 21.0737 46.978 23.087 46.978C25.1002 46.978 26.7323 48.6332 26.7323 50.6749Z" fill="#FFCE07"/>
<path d="M65.6156 3.84754C65.6156 5.88929 63.9835 7.54445 61.9703 7.54445C59.957 7.54445 58.325 5.88929 58.325 3.84754C58.325 1.8058 59.957 0.150635 61.9703 0.150635C63.9835 0.150635 65.6156 1.8058 65.6156 3.84754Z" fill="#FFCE07"/>
<path d="M65.6156 35.0658C65.6156 37.1075 63.9835 38.7627 61.9703 38.7627C59.957 38.7627 58.325 37.1075 58.325 35.0658C58.325 33.0241 59.957 31.3689 61.9703 31.3689C63.9835 31.3689 65.6156 33.0241 65.6156 35.0658Z" fill="#FFCE07"/>
<path d="M65.6156 19.4568C65.6156 21.4985 63.9835 23.1537 61.9703 23.1537C59.957 23.1537 58.325 21.4985 58.325 19.4568C58.325 17.415 59.957 15.7599 61.9703 15.7599C63.9835 15.7599 65.6156 17.415 65.6156 19.4568Z" fill="#FFCE07"/>
<path d="M65.6156 50.6749C65.6156 52.7167 63.9835 54.3718 61.9703 54.3718C59.957 54.3718 58.325 52.7167 58.325 50.6749C58.325 48.6332 59.957 46.978 61.9703 46.978C63.9835 46.978 65.6156 48.6332 65.6156 50.6749Z" fill="#FFCE07"/>
</svg>
