<svg width="300" height="56" viewBox="0 0 300 56" fill="none" xmlns="http://www.w3.org/2000/svg">
<path d="M8.042 4.2918C8.03949 6.33355 6.4054 7.98665 4.39215 7.9841C2.3789 7.98156 0.748876 6.32434 0.751382 4.2826C0.753889 2.24085 2.38798 0.587754 4.40123 0.590296C6.41448 0.592838 8.04451 2.25006 8.042 4.2918Z" fill="#FFCE07"/>
<path d="M163.575 4.48809C163.573 6.52983 161.939 8.18293 159.925 8.18039C157.912 8.17785 156.282 6.52063 156.285 4.47889C156.287 2.43714 157.921 0.784043 159.934 0.786585C161.948 0.789127 163.578 2.44635 163.575 4.48809Z" fill="#FFCE07"/>
<path d="M85.8086 4.38982C85.8061 6.43157 84.172 8.08467 82.1587 8.08213C80.1455 8.07958 78.5155 6.42236 78.518 4.38062C78.5205 2.33888 80.1546 0.685776 82.1678 0.688318C84.1811 0.69086 85.8111 2.34808 85.8086 4.38982Z" fill="#FFCE07"/>
<path d="M241.342 4.58624C241.339 6.62798 239.705 8.28108 237.692 8.27854C235.679 8.276 234.049 6.61877 234.051 4.57703C234.054 2.53529 235.688 0.882188 237.701 0.884729C239.714 0.887271 241.344 2.54449 241.342 4.58624Z" fill="#FFCE07"/>
<path d="M8.00367 35.5101C8.00116 37.5518 6.36707 39.2049 4.35382 39.2024C2.34057 39.1998 0.710546 37.5426 0.713052 35.5009C0.715559 33.4591 2.34965 31.806 4.3629 31.8086C6.37615 31.8111 8.00618 33.4683 8.00367 35.5101Z" fill="#FFCE07"/>
<path d="M163.537 35.7064C163.534 37.7481 161.9 39.4012 159.887 39.3987C157.874 39.3961 156.244 37.7389 156.246 35.6971C156.249 33.6554 157.883 32.0023 159.896 32.0048C161.909 32.0074 163.539 33.6646 163.537 35.7064Z" fill="#FFCE07"/>
<path d="M85.7703 35.6082C85.7678 37.65 84.1337 39.3031 82.1204 39.3005C80.1072 39.298 78.4771 37.6407 78.4797 35.599C78.4822 33.5573 80.1163 31.9042 82.1295 31.9067C84.1427 31.9092 85.7728 33.5665 85.7703 35.6082Z" fill="#FFCE07"/>
<path d="M241.303 35.8046C241.301 37.8464 239.667 39.4995 237.654 39.4969C235.64 39.4944 234.01 37.8372 234.013 35.7954C234.015 33.7537 235.649 32.1006 237.663 32.1031C239.676 32.1057 241.306 33.7629 241.303 35.8046Z" fill="#FFCE07"/>
<path d="M8.02283 19.9008C8.02032 21.9426 6.38623 23.5957 4.37298 23.5931C2.35973 23.5906 0.729703 21.9333 0.73221 19.8916C0.734716 17.8499 2.36881 16.1968 4.38206 16.1993C6.3953 16.2018 8.02533 17.8591 8.02283 19.9008Z" fill="#FFCE07"/>
<path d="M163.556 20.0972C163.554 22.139 161.919 23.7921 159.906 23.7895C157.893 23.787 156.263 22.1298 156.265 20.088C156.268 18.0463 157.902 16.3932 159.915 16.3957C161.928 16.3983 163.559 18.0555 163.556 20.0972Z" fill="#FFCE07"/>
<path d="M85.7894 19.9991C85.7869 22.0408 84.1528 23.6939 82.1396 23.6914C80.1263 23.6888 78.4963 22.0316 78.4988 19.9899C78.5013 17.9481 80.1354 16.295 82.1487 16.2976C84.1619 16.3001 85.7919 17.9573 85.7894 19.9991Z" fill="#FFCE07"/>
<path d="M241.323 20.1954C241.32 22.2371 239.686 23.8902 237.673 23.8877C235.659 23.8851 234.029 22.2279 234.032 20.1862C234.034 18.1444 235.669 16.4913 237.682 16.4939C239.695 16.4964 241.325 18.1536 241.323 20.1954Z" fill="#FFCE07"/>
<path d="M7.9845 51.1192C7.982 53.1609 6.34791 54.814 4.33466 54.8115C2.32141 54.809 0.691381 53.1517 0.693887 51.11C0.696393 49.0682 2.33049 47.4151 4.34373 47.4177C6.35698 47.4202 7.98701 49.0775 7.9845 51.1192Z" fill="#FFCE07"/>
<path d="M163.518 51.3155C163.515 53.3572 161.881 55.0103 159.868 55.0078C157.855 55.0052 156.225 53.348 156.227 51.3063C156.23 49.2645 157.864 47.6114 159.877 47.614C161.89 47.6165 163.52 49.2737 163.518 51.3155Z" fill="#FFCE07"/>
<path d="M85.7511 51.2173C85.7486 53.2591 84.1145 54.9122 82.1012 54.9096C80.088 54.9071 78.458 53.2499 78.4605 51.2081C78.463 49.1664 80.0971 47.5133 82.1103 47.5158C84.1236 47.5184 85.7536 49.1756 85.7511 51.2173Z" fill="#FFCE07"/>
<path d="M241.284 51.4138C241.282 53.4555 239.648 55.1086 237.634 55.1061C235.621 55.1035 233.991 53.4463 233.994 51.4045C233.996 49.3628 235.63 47.7097 237.643 47.7122C239.657 47.7148 241.287 49.372 241.284 51.4138Z" fill="#FFCE07"/>
<path d="M46.9253 4.34075C46.9228 6.3825 45.2887 8.0356 43.2755 8.03305C41.2622 8.03051 39.6322 6.37329 39.6347 4.33155C39.6372 2.2898 41.2713 0.636704 43.2845 0.639246C45.2978 0.641788 46.9278 2.29901 46.9253 4.34075Z" fill="#FFCE07"/>
<path d="M202.458 4.53716C202.456 6.57891 200.822 8.23201 198.809 8.22947C196.795 8.22692 195.165 6.5697 195.168 4.52796C195.17 2.48621 196.804 0.833115 198.818 0.835657C200.831 0.838199 202.461 2.49542 202.458 4.53716Z" fill="#FFCE07"/>
<path d="M124.692 4.43914C124.689 6.48088 123.055 8.13398 121.042 8.13144C119.029 8.1289 117.399 6.47168 117.401 4.42994C117.404 2.38819 119.038 0.735093 121.051 0.737635C123.064 0.740176 124.694 2.3974 124.692 4.43914Z" fill="#FFCE07"/>
<path d="M280.225 4.63531C280.223 6.67705 278.588 8.33015 276.575 8.32761C274.562 8.32507 272.932 6.66785 272.934 4.6261C272.937 2.58436 274.571 0.93126 276.584 0.933802C278.598 0.936343 280.228 2.59356 280.225 4.63531Z" fill="#FFCE07"/>
<path d="M46.887 35.5591C46.8845 37.6009 45.2504 39.254 43.2371 39.2514C41.2239 39.2489 39.5938 37.5917 39.5964 35.5499C39.5989 33.5082 41.233 31.8551 43.2462 31.8576C45.2594 31.8602 46.8895 33.5174 46.887 35.5591Z" fill="#FFCE07"/>
<path d="M202.42 35.7555C202.418 37.7973 200.784 39.4504 198.77 39.4478C196.757 39.4453 195.127 37.7881 195.129 35.7463C195.132 33.7046 196.766 32.0515 198.779 32.054C200.793 32.0566 202.423 33.7138 202.42 35.7555Z" fill="#FFCE07"/>
<path d="M124.654 35.6573C124.651 37.699 123.017 39.3521 121.004 39.3496C118.99 39.347 117.36 37.6898 117.363 35.6481C117.365 33.6063 119 31.9532 121.013 31.9558C123.026 31.9583 124.656 33.6155 124.654 35.6573Z" fill="#FFCE07"/>
<path d="M280.187 35.8537C280.184 37.8954 278.55 39.5485 276.537 39.546C274.524 39.5435 272.894 37.8862 272.896 35.8445C272.899 33.8027 274.533 32.1496 276.546 32.1522C278.559 32.1547 280.189 33.8119 280.187 35.8537Z" fill="#FFCE07"/>
<path d="M46.9061 19.9499C46.9036 21.9916 45.2695 23.6447 43.2563 23.6422C41.243 23.6396 39.613 21.9824 39.6155 19.9407C39.618 17.8989 41.2521 16.2458 43.2654 16.2484C45.2786 16.2509 46.9086 17.9081 46.9061 19.9499Z" fill="#FFCE07"/>
<path d="M202.439 20.1463C202.437 22.188 200.803 23.8411 198.789 23.8386C196.776 23.8361 195.146 22.1788 195.149 20.1371C195.151 18.0953 196.785 16.4422 198.799 16.4448C200.812 16.4473 202.442 18.1046 202.439 20.1463Z" fill="#FFCE07"/>
<path d="M124.673 20.048C124.67 22.0898 123.036 23.7429 121.023 23.7403C119.01 23.7378 117.38 22.0806 117.382 20.0388C117.385 17.9971 119.019 16.344 121.032 16.3465C123.045 16.3491 124.675 18.0063 124.673 20.048Z" fill="#FFCE07"/>
<path d="M280.206 20.2446C280.203 22.2863 278.569 23.9394 276.556 23.9369C274.543 23.9343 272.913 22.2771 272.915 20.2354C272.918 18.1936 274.552 16.5405 276.565 16.5431C278.578 16.5456 280.208 18.2028 280.206 20.2446Z" fill="#FFCE07"/>
<path d="M46.8678 51.1683C46.8653 53.21 45.2312 54.8631 43.218 54.8606C41.2047 54.858 39.5747 53.2008 39.5772 51.1591C39.5797 49.1173 41.2138 47.4642 43.227 47.4668C45.2403 47.4693 46.8703 49.1265 46.8678 51.1683Z" fill="#FFCE07"/>
<path d="M202.401 51.3647C202.398 53.4064 200.764 55.0595 198.751 55.057C196.738 55.0544 195.108 53.3972 195.11 51.3555C195.113 49.3137 196.747 47.6606 198.76 47.6632C200.773 47.6657 202.403 49.3229 202.401 51.3647Z" fill="#FFCE07"/>
<path d="M124.634 51.2664C124.632 53.3082 122.998 54.9613 120.985 54.9587C118.971 54.9562 117.341 53.299 117.344 51.2572C117.346 49.2155 118.98 47.5624 120.994 47.5649C123.007 47.5674 124.637 49.2247 124.634 51.2664Z" fill="#FFCE07"/>
<path d="M280.168 51.4628C280.165 53.5046 278.531 55.1577 276.518 55.1551C274.504 55.1526 272.874 53.4954 272.877 51.4536C272.879 49.4119 274.514 47.7588 276.527 47.7613C278.54 47.7639 280.17 49.4211 280.168 51.4628Z" fill="#FFCE07"/>
<path d="M27.4837 4.31634C27.4812 6.35808 25.8471 8.01118 23.8338 8.00864C21.8206 8.0061 20.1905 6.34888 20.193 4.30713C20.1955 2.26539 21.8296 0.61229 23.8429 0.614832C25.8561 0.617374 27.4862 2.27459 27.4837 4.31634Z" fill="#FFCE07"/>
<path d="M183.017 4.51263C183.014 6.55437 181.38 8.20747 179.367 8.20493C177.354 8.20239 175.724 6.54517 175.726 4.50342C175.729 2.46168 177.363 0.808579 179.376 0.811121C181.389 0.813663 183.019 2.47088 183.017 4.51263Z" fill="#FFCE07"/>
<path d="M105.25 4.41448C105.248 6.45623 103.614 8.10933 101.6 8.10678C99.5871 8.10424 97.9571 6.44702 97.9596 4.40528C97.9621 2.36353 99.5962 0.710435 101.609 0.712976C103.623 0.715518 105.253 2.37274 105.25 4.41448Z" fill="#FFCE07"/>
<path d="M260.783 4.61089C260.781 6.65264 259.147 8.30574 257.134 8.3032C255.12 8.30065 253.49 6.64343 253.493 4.60169C253.495 2.55995 255.129 0.906846 257.143 0.909388C259.156 0.911929 260.786 2.56915 260.783 4.61089Z" fill="#FFCE07"/>
<path d="M27.4453 35.5346C27.4428 37.5763 25.8087 39.2294 23.7955 39.2269C21.7822 39.2244 20.1522 37.5671 20.1547 35.5254C20.1572 33.4837 21.7913 31.8306 23.8046 31.8331C25.8178 31.8356 27.4478 33.4929 27.4453 35.5346Z" fill="#FFCE07"/>
<path d="M182.978 35.731C182.976 37.7728 181.342 39.4259 179.329 39.4233C177.315 39.4208 175.685 37.7636 175.688 35.7218C175.69 33.6801 177.324 32.027 179.338 32.0295C181.351 32.032 182.981 33.6893 182.978 35.731Z" fill="#FFCE07"/>
<path d="M105.212 35.6327C105.209 37.6745 103.575 39.3276 101.562 39.325C99.5488 39.3225 97.9188 37.6653 97.9213 35.6235C97.9238 33.5818 99.5579 31.9287 101.571 31.9312C103.584 31.9338 105.214 33.591 105.212 35.6327Z" fill="#FFCE07"/>
<path d="M260.745 35.8292C260.743 37.8709 259.108 39.524 257.095 39.5215C255.082 39.5189 253.452 37.8617 253.454 35.82C253.457 33.7782 255.091 32.1251 257.104 32.1276C259.118 32.1302 260.748 33.7874 260.745 35.8292Z" fill="#FFCE07"/>
<path d="M27.4645 19.9255C27.462 21.9672 25.8279 23.6203 23.8146 23.6178C21.8014 23.6152 20.1714 21.958 20.1739 19.9163C20.1764 17.8745 21.8105 16.2214 23.8237 16.224C25.837 16.2265 27.467 17.8837 27.4645 19.9255Z" fill="#FFCE07"/>
<path d="M182.998 20.1219C182.995 22.1636 181.361 23.8167 179.348 23.8142C177.335 23.8116 175.705 22.1544 175.707 20.1127C175.71 18.0709 177.344 16.4178 179.357 16.4204C181.37 16.4229 183 18.0801 182.998 20.1219Z" fill="#FFCE07"/>
<path d="M105.231 20.0236C105.229 22.0654 103.594 23.7185 101.581 23.7159C99.568 23.7134 97.9379 22.0562 97.9405 20.0144C97.943 17.9727 99.5771 16.3196 101.59 16.3221C103.604 16.3246 105.234 17.9819 105.231 20.0236Z" fill="#FFCE07"/>
<path d="M260.764 20.22C260.762 22.2618 259.128 23.9149 257.114 23.9123C255.101 23.9098 253.471 22.2526 253.474 20.2108C253.476 18.1691 255.11 16.516 257.123 16.5185C259.137 16.5211 260.767 18.1783 260.764 20.22Z" fill="#FFCE07"/>
<path d="M27.4262 51.1437C27.4237 53.1854 25.7896 54.8385 23.7763 54.836C21.7631 54.8334 20.133 53.1762 20.1356 51.1345C20.1381 49.0927 21.7722 47.4396 23.7854 47.4422C25.7986 47.4447 27.4287 49.1019 27.4262 51.1437Z" fill="#FFCE07"/>
<path d="M182.959 51.3401C182.957 53.3818 181.323 55.0349 179.309 55.0324C177.296 55.0298 175.666 53.3726 175.669 51.3309C175.671 49.2891 177.305 47.636 179.319 47.6386C181.332 47.6411 182.962 49.2983 182.959 51.3401Z" fill="#FFCE07"/>
<path d="M105.193 51.2419C105.19 53.2837 103.556 54.9368 101.543 54.9342C99.5296 54.9317 97.8996 53.2745 97.9021 51.2327C97.9046 49.191 99.5387 47.5379 101.552 47.5404C103.565 47.543 105.195 49.2002 105.193 51.2419Z" fill="#FFCE07"/>
<path d="M260.726 51.4382C260.723 53.48 259.089 55.1331 257.076 55.1305C255.063 55.128 253.433 53.4708 253.435 51.429C253.438 49.3873 255.072 47.7342 257.085 47.7367C259.098 47.7393 260.728 49.3965 260.726 51.4382Z" fill="#FFCE07"/>
<path d="M66.3669 4.36541C66.3644 6.40715 64.7303 8.06025 62.7171 8.05771C60.7038 8.05517 59.0738 6.39795 59.0763 4.35621C59.0788 2.31446 60.7129 0.661362 62.7262 0.663904C64.7394 0.666446 66.3694 2.32367 66.3669 4.36541Z" fill="#FFCE07"/>
<path d="M221.9 4.5617C221.898 6.60344 220.263 8.25654 218.25 8.254C216.237 8.25146 214.607 6.59424 214.609 4.55249C214.612 2.51075 216.246 0.857651 218.259 0.860193C220.273 0.862735 221.903 2.51996 221.9 4.5617Z" fill="#FFCE07"/>
<path d="M144.134 4.46356C144.131 6.5053 142.497 8.1584 140.484 8.15586C138.47 8.15332 136.84 6.49609 136.843 4.45435C136.845 2.41261 138.48 0.759507 140.493 0.762049C142.506 0.76459 144.136 2.42181 144.134 4.46356Z" fill="#FFCE07"/>
<path d="M299.667 4.65997C299.664 6.70171 298.03 8.35481 296.017 8.35227C294.004 8.34973 292.374 6.69251 292.376 4.65076C292.379 2.60902 294.013 0.955918 296.026 0.95846C298.039 0.961002 299.669 2.61822 299.667 4.65997Z" fill="#FFCE07"/>
<path d="M66.3286 35.5837C66.3261 37.6254 64.692 39.2785 62.6788 39.276C60.6655 39.2734 59.0355 37.6162 59.038 35.5745C59.0405 33.5327 60.6746 31.8796 62.6879 31.8822C64.7011 31.8847 66.3311 33.5419 66.3286 35.5837Z" fill="#FFCE07"/>
<path d="M221.862 35.7801C221.859 37.8218 220.225 39.4749 218.212 39.4724C216.199 39.4698 214.569 37.8126 214.571 35.7709C214.574 33.7291 216.208 32.076 218.221 32.0786C220.234 32.0811 221.864 33.7383 221.862 35.7801Z" fill="#FFCE07"/>
<path d="M144.095 35.6819C144.093 37.7237 142.459 39.3768 140.445 39.3742C138.432 39.3717 136.802 37.7145 136.805 35.6727C136.807 33.631 138.441 31.9779 140.454 31.9804C142.468 31.983 144.098 33.6402 144.095 35.6819Z" fill="#FFCE07"/>
<path d="M299.628 35.8781C299.626 37.9198 297.992 39.5729 295.979 39.5704C293.965 39.5679 292.335 37.9106 292.338 35.8689C292.34 33.8272 293.974 32.1741 295.988 32.1766C298.001 32.1791 299.631 33.8364 299.628 35.8781Z" fill="#FFCE07"/>
<path d="M66.3478 19.9745C66.3453 22.0163 64.7112 23.6694 62.6979 23.6668C60.6847 23.6643 59.0547 22.0071 59.0572 19.9653C59.0597 17.9236 60.6938 16.2705 62.707 16.273C64.7203 16.2756 66.3503 17.9328 66.3478 19.9745Z" fill="#FFCE07"/>
<path d="M221.881 20.171C221.878 22.2127 220.244 23.8658 218.231 23.8633C216.218 23.8607 214.588 22.2035 214.59 20.1617C214.593 18.12 216.227 16.4669 218.24 16.4694C220.253 16.472 221.883 18.1292 221.881 20.171Z" fill="#FFCE07"/>
<path d="M144.114 20.0727C144.112 22.1144 142.478 23.7675 140.464 23.765C138.451 23.7624 136.821 22.1052 136.824 20.0635C136.826 18.0217 138.46 16.3686 140.474 16.3712C142.487 16.3737 144.117 18.0309 144.114 20.0727Z" fill="#FFCE07"/>
<path d="M299.648 20.2691C299.645 22.3108 298.011 23.9639 295.998 23.9614C293.984 23.9589 292.354 22.3016 292.357 20.2599C292.359 18.2181 293.994 16.565 296.007 16.5676C298.02 16.5701 299.65 18.2274 299.648 20.2691Z" fill="#FFCE07"/>
<path d="M66.3095 51.1929C66.3069 53.2346 64.6729 54.8877 62.6596 54.8852C60.6464 54.8826 59.0163 53.2254 59.0188 51.1837C59.0213 49.1419 60.6554 47.4888 62.6687 47.4914C64.6819 47.4939 66.312 49.1511 66.3095 51.1929Z" fill="#FFCE07"/>
<path d="M221.843 51.3892C221.84 53.4309 220.206 55.084 218.193 55.0815C216.18 55.0789 214.549 53.4217 214.552 51.3799C214.554 49.3382 216.189 47.6851 218.202 47.6876C220.215 47.6902 221.845 49.3474 221.843 51.3892Z" fill="#FFCE07"/>
<path d="M144.076 51.291C144.074 53.3328 142.439 54.9859 140.426 54.9833C138.413 54.9808 136.783 53.3235 136.785 51.2818C136.788 49.2401 138.422 47.587 140.435 47.5895C142.449 47.592 144.079 49.2493 144.076 51.291Z" fill="#FFCE07"/>
<path d="M299.609 51.4874C299.607 53.5292 297.973 55.1823 295.959 55.1797C293.946 55.1772 292.316 53.52 292.319 51.4782C292.321 49.4365 293.955 47.7834 295.968 47.7859C297.982 47.7885 299.612 49.4457 299.609 51.4874Z" fill="#FFCE07"/>
</svg>
