<svg width="79" height="13" viewBox="0 0 79 13" fill="none" xmlns="http://www.w3.org/2000/svg">
<path d="M13 6.5C13 10.0899 10.0899 13 6.5 13C2.91015 13 0 10.0899 0 6.5C0 2.91015 2.91015 0 6.5 0C10.0899 0 13 2.91015 13 6.5Z" fill="#FFCE07"/>
<path d="M46 6.5C46 10.0899 43.0899 13 39.5 13C35.9101 13 33 10.0899 33 6.5C33 2.91015 35.9101 0 39.5 0C43.0899 0 46 2.91015 46 6.5Z" fill="#C4C4C4"/>
<path d="M79 6.5C79 10.0899 76.0899 13 72.5 13C68.9101 13 66 10.0899 66 6.5C66 2.91015 68.9101 0 72.5 0C76.0899 0 79 2.91015 79 6.5Z" fill="#C4C4C4"/>
</svg>
