<svg width="190" height="151" viewBox="0 0 190 151" fill="none" xmlns="http://www.w3.org/2000/svg">
<g filter="url(#filter0_d_284_107)">
<path d="M4.05663 73L4.05663 142.5L64.0566 142.5L64.0566 64L52.0566 64C52.7233 56.3333 53.39 51.6667 54.0566 50C54.0566 49.6667 54.2233 48.6667 54.5566 47C54.89 45.6667 55.5566 44.1667 56.5566 42.5C57.5566 40.8333 59.0566 39.3333 61.0566 38C62.7233 36.6667 65.2233 36 68.5566 36L68.5566 -2.54873e-05C52.5567 0.999973 40.7233 3.3333 33.0567 6.99997C25.39 10.6666 19.2233 16.1666 14.5567 23.5C10.89 30.1666 8.22332 37.6666 6.55665 46C4.88998 54.3333 4.05663 63.3333 4.05663 73ZM121.057 73L121.057 142.5L181.057 142.5L181.057 64L169.057 64C169.723 56.3333 170.39 51.6667 171.057 50C171.057 49.6667 171.223 48.6667 171.557 47C171.89 45.6667 172.557 44.1667 173.557 42.5C174.557 40.8333 176.057 39.3333 178.057 38C179.723 36.6667 182.223 36 185.557 36L185.557 -1.52588e-05C169.557 0.999983 157.723 3.33331 150.057 6.99998C142.39 10.6667 136.223 16.1667 131.557 23.5C127.89 30.1667 125.223 37.6667 123.557 46C121.89 54.3333 121.057 63.3333 121.057 73Z" fill="#FFCE07" fill-opacity="0.2" shape-rendering="crispEdges"/>
</g>
<defs>
<filter id="filter0_d_284_107" x="0.0566406" y="0" width="189.5" height="150.5" filterUnits="userSpaceOnUse" color-interpolation-filters="sRGB">
<feFlood flood-opacity="0" result="BackgroundImageFix"/>
<feColorMatrix in="SourceAlpha" type="matrix" values="0 0 0 0 0 0 0 0 0 0 0 0 0 0 0 0 0 0 127 0" result="hardAlpha"/>
<feOffset dy="4"/>
<feGaussianBlur stdDeviation="2"/>
<feComposite in2="hardAlpha" operator="out"/>
<feColorMatrix type="matrix" values="0 0 0 0 0 0 0 0 0 0 0 0 0 0 0 0 0 0 0.25 0"/>
<feBlend mode="normal" in2="BackgroundImageFix" result="effect1_dropShadow_284_107"/>
<feBlend mode="normal" in="SourceGraphic" in2="effect1_dropShadow_284_107" result="shape"/>
</filter>
</defs>
</svg>
